<?xml version="1.0" encoding="utf-8"?>
<!-- Generator: Adobe Illustrator 21.1.0, SVG Export Plug-In . SVG Version: 6.00 Build 0)  -->
<svg version="1.1" id="Layer_1" xmlns="http://www.w3.org/2000/svg" xmlns:xlink="http://www.w3.org/1999/xlink" x="0px" y="0px"
	 viewBox="0 0 150 109.8" style="enable-background:new 0 0 150 109.8;" xml:space="preserve">
<style type="text/css">
	.st0{filter:url(#AI_Shadow_1);}
	.st1{fill:#FFFFFF;}
	.st2{fill:#E91C24;}
</style>
<filter  filterUnits="objectBoundingBox" id="AI_Shadow_1">
	<feGaussianBlur  in="SourceAlpha" result="blur" stdDeviation="2"></feGaussianBlur>
	<feOffset  dx="0" dy="2"></feOffset>
	<feComponentTransfer>
		<feFuncA  slope="0.2" type="linear"></feFuncA>
	</feComponentTransfer>
	<feMerge>
		<feMergeNode></feMergeNode>
		<feMergeNode  in="SourceGraphic"></feMergeNode>
	</feMerge>
</filter>
<g class="st0">
	<g>
		<path class="st1" d="M127.5,51.8c0,21.6-13.7,40.1-32.9,47.2c-4.2,1.5-8.6,2.5-13.2,2.9c-1.4,0.1-2.7,0.2-4.1,0.2
			C49.5,102.2,27,79.7,27,51.9S49.5,1.6,77.3,1.6C105,1.6,127.5,24.2,127.5,51.8z"/>
	</g>
	<path class="st2" d="M72.7,71.7c8,6.6,18.2,5.6,25-2.2c4.5-5.2,6.4-11.5,7-18.2c0.8-8.9-2.3-16-9.4-21.4C89.6,25.5,83,24.2,76,24.7
		c-7.3,0.6-13.8,3-19,8.3c-6.3,6.5-8.8,14.1-6.8,23c0.9,3.9,2.8,7.2,6.5,9.2c1.9,1.1,2.5,0.8,3.2-1.3c0.7-1.9,0.6-3.6-0.6-5.4
		c-3.6-5.3-2.6-13.8,2-19.6c6-7.6,17.4-10.1,26-5.6c5,2.6,7.5,7,7.9,12.5c0.4,6.1-0.6,11.9-3.7,17.3c-2.2,3.8-5.3,6.6-10.2,6.4
		c-4.3-0.3-7.1-3.8-6.1-8c0.9-3.8,2.1-7.4,3-11.2c0.4-1.6,0.5-3.3,0.4-4.9c-0.4-3.8-4-5.8-7.6-4.2c-2.6,1.2-4.3,3.4-4.7,6.1
		c-0.4,2.8,0,5.6,0,8.4c0,1.6,0.3,3.3,0,4.8c-1,4.8-2.3,9.5-3.3,14.2c-0.9,4.4-1.4,8.9-2,13.3c-0.1,0.4-0.2,0.9-0.3,1.3
		C51.2,87.2,38,73.8,36,57.8c-2.5-19.8,8.3-38,26.8-44.9c18-6.7,38.5-0.1,49.1,16c10.7,16.1,8.9,37.5-4.2,51.5
		C94.4,94.5,74.6,95.7,66.1,91.7C68.3,84.9,70.5,78.3,72.7,71.7z"/>
</g>
</svg>
