<?xml version="1.0" encoding="utf-8"?>
<!-- Generator: Adobe Illustrator 25.2.3, SVG Export Plug-In . SVG Version: 6.00 Build 0)  -->
<svg version="1.1" id="Layer_1" xmlns="http://www.w3.org/2000/svg" xmlns:xlink="http://www.w3.org/1999/xlink" x="0px" y="0px"
	 viewBox="0 0 165.1 113.4" style="enable-background:new 0 0 165.1 113.4;" xml:space="preserve">
<style type="text/css">
	.st0{clip-path:url(#SVGID_2_);}
	.st1{fill:#F54B00;}
	.st2{clip-path:url(#SVGID_4_);}
	.st3{fill:#FFFFFF;}
</style>
<g>
	<g>
		<g>
			<defs>
				<circle id="SVGID_1_" cx="82.4" cy="55.9" r="51.2"/>
			</defs>
			<clipPath id="SVGID_2_">
				<use xlink:href="#SVGID_1_"  style="overflow:visible;"/>
			</clipPath>
			<g class="st0">
				<circle class="st1" cx="82" cy="59" r="64"/>
			</g>
		</g>
		<g>
			<defs>
				<circle id="SVGID_3_" cx="82.4" cy="55.9" r="51.2"/>
			</defs>
			<clipPath id="SVGID_4_">
				<use xlink:href="#SVGID_3_"  style="overflow:visible;"/>
			</clipPath>
			<g class="st2">
				<path class="st3" d="M126,56.2c0-5.6-4.6-10.2-10.2-10.2c-2.6,0-4.9,1-6.7,2.6c-6.4-4.1-14.9-6.8-24.3-7.3l4.9-15.6l13.5,3.2
					c0.2,4.5,3.9,8.2,8.5,8.2c4.7,0,8.5-3.8,8.5-8.5s-3.8-8.5-8.5-8.5c-3.4,0-6.3,2-7.7,4.9l-15.1-3.6c-1-0.2-2,0.3-2.3,1.3
					l-5.8,18.5c-10,0.2-19.1,2.9-25.8,7.2c-1.9-1.5-4.2-2.5-6.7-2.5c-5.6,0-10.2,4.6-10.2,10.2c0,3.6,1.9,6.7,4.7,8.6
					c-0.1,0.9-0.2,1.8-0.2,2.8C42.6,82,60.3,93.9,82,93.9s39.4-11.8,39.4-26.4c0-0.9-0.1-1.7-0.2-2.6C124,63.2,126,59.9,126,56.2z
					 M111.7,24c2.5,0,4.5,2,4.5,4.5s-2,4.5-4.5,4.5s-4.5-2-4.5-4.5S109.2,24,111.7,24z M42,56.2c0-3.5,2.8-6.3,6.3-6.3
					c1.2,0,2.3,0.3,3.2,0.9c-3.5,2.9-6.1,6.2-7.6,9.9C42.7,59.5,42,57.9,42,56.2z M117.3,67.5c0,12.4-15.9,22.4-35.4,22.4
					c-19.6,0.1-35.5-10-35.5-22.4c0-0.4,0-0.9,0.1-1.3c0.1-1.3,0.4-2.6,0.9-3.8c1.2-3.2,3.5-6.2,6.7-8.7c1-0.8,2.1-1.6,3.3-2.3
					c6.4-3.9,15-6.3,24.6-6.3c9.7,0,18.4,2.5,24.8,6.5c1.2,0.7,2.3,1.5,3.3,2.3c3,2.5,5.2,5.4,6.4,8.5c0.5,1.2,0.8,2.5,0.9,3.9
					C117.3,66.7,117.3,67.1,117.3,67.5z M120,60.9c-1.4-3.7-4.1-7.1-7.6-10c1-0.6,2.2-1,3.4-1c3.5,0,6.3,2.8,6.3,6.3
					C122.1,58,121.3,59.7,120,60.9z"/>
				<path class="st3" d="M74.9,62.8c0-3.3-2.7-6.1-6-6.1s-6.1,2.8-6.1,6.1c0,3.3,2.8,6,6.1,6S74.9,66.1,74.9,62.8z"/>
				<path class="st3" d="M95.3,56.7c-3.3,0-6.1,2.8-6.1,6.1c0,3.3,2.8,6,6.1,6c3.3,0,6-2.7,6-6C101.3,59.5,98.6,56.7,95.3,56.7z"/>
				<path class="st3" d="M93.6,77.4c-2.2,2.2-6,3.3-11.5,3.3l0,0l0,0c-5.5,0-9.3-1.1-11.5-3.3c-0.8-0.8-2-0.8-2.8,0
					c-0.8,0.8-0.8,2,0,2.8c3,3,7.7,4.5,14.3,4.5l0,0l0,0c6.6,0,11.3-1.5,14.3-4.5c0.8-0.8,0.8-2,0-2.8S94.3,76.6,93.6,77.4z"/>
			</g>
		</g>
	</g>
</g>
</svg>
