<?xml version="1.0" encoding="utf-8"?>
<!-- Generator: Adobe Illustrator 25.2.3, SVG Export Plug-In . SVG Version: 6.00 Build 0)  -->
<svg version="1.1" id="Layer_1" xmlns="http://www.w3.org/2000/svg" xmlns:xlink="http://www.w3.org/1999/xlink" x="0px" y="0px"
	 viewBox="0 0 150 111.2" style="enable-background:new 0 0 150 111.2;" xml:space="preserve">
<style type="text/css">
	.st0{clip-path:url(#SVGID_2_);}
	.st1{fill-rule:evenodd;clip-rule:evenodd;fill:#010101;}
	.st2{fill-rule:evenodd;clip-rule:evenodd;fill:#EE1D51;}
	.st3{fill-rule:evenodd;clip-rule:evenodd;fill:#66C8CF;}
	.st4{fill-rule:evenodd;clip-rule:evenodd;fill:#FFFFFF;}
	.st5{fill-rule:evenodd;clip-rule:evenodd;fill:#EE1D52;}
	.st6{fill-rule:evenodd;clip-rule:evenodd;fill:#69C9D0;}
</style>
<g>
	<g>
		<g>
			<defs>
				<circle id="SVGID_1_" cx="75" cy="55.6" r="51.2"/>
			</defs>
			<clipPath id="SVGID_2_">
				<use xlink:href="#SVGID_1_"  style="overflow:visible;"/>
			</clipPath>
			<g class="st0">
				<path class="st1" d="M18.7-11.4h109.6c7.6,0,13.7,6.1,13.7,13.7v109.6c0,7.6-6.1,13.7-13.7,13.7H18.7c-7.6,0-13.7-6.1-13.7-13.7
					V2.3C5-5.3,11.1-11.4,18.7-11.4z"/>
				<g>
					<path class="st2" d="M85.5,90.1c2.5,0,4.5-2,4.5-4.5s-2-4.5-4.5-4.5h-0.7c2.5,0,4.5,2,4.5,4.5s-2,4.5-4.5,4.5H85.5z"/>
					<path class="st3" d="M84.8,81.1h-0.7c-2.5,0-4.5,2-4.5,4.5s2,4.5,4.5,4.5h0.7c-2.5,0-4.5-2-4.5-4.5S82.3,81.1,84.8,81.1z"/>
					<ellipse class="st1" cx="84.8" cy="85.6" rx="2.2" ry="2.2"/>
					<path class="st4" d="M50.3,79.1v2.3H53v8.7h2.7v-8.6h2.2l0.7-2.3L50.3,79.1L50.3,79.1z M72.2,79.1v2.3h2.7v8.7h2.7v-8.6h2.2
						l0.7-2.3L72.2,79.1L72.2,79.1z M59.1,80.4c0-0.7,0.6-1.3,1.3-1.3c0.7,0,1.3,0.6,1.3,1.3c0,0.7-0.6,1.3-1.3,1.3
						C59.7,81.7,59.1,81.1,59.1,80.4z M59.1,82.6h2.6V90h-2.6V82.6z M62.8,79.1V90h2.6v-2.8l0.8-0.7l2.5,3.6h2.8l-3.7-5.3l3.3-3.2
						H68l-2.6,2.6v-5.1H62.8z M90.9,79.1V90h2.6v-2.8l0.8-0.7l2.5,3.6h2.8l-3.7-5.3l3.3-3.2H96l-2.6,2.6v-5.1H90.9z"/>
					<path class="st5" d="M86.9,41.2c3.6,2.6,8,4.1,12.8,4.1v-9.2c-0.9,0-1.8-0.1-2.7-0.3V43c-4.8,0-9.2-1.5-12.8-4.1v18.7
						c0,9.3-7.6,16.9-16.9,16.9c-3.5,0-6.7-1.1-9.4-2.9c3.1,3.1,7.4,5.1,12.1,5.1c9.3,0,16.9-7.6,16.9-16.9V41.2L86.9,41.2z
						 M90.2,32c-1.8-2-3-4.6-3.3-7.5v-1.2h-2.5C85,27,87.2,30.1,90.2,32L90.2,32z M63.8,64.5c-1-1.3-1.6-3-1.6-4.7
						c0-4.3,3.5-7.7,7.7-7.7c0.8,0,1.6,0.1,2.3,0.4v-9.4c-0.9-0.1-1.8-0.2-2.7-0.2v7.3c-0.8-0.2-1.6-0.4-2.3-0.4
						c-4.3,0-7.7,3.5-7.7,7.7C59.5,60.6,61.2,63.3,63.8,64.5z"/>
					<path class="st4" d="M84.2,39c3.6,2.6,8,4.1,12.8,4.1v-7.2c-2.7-0.6-5-2-6.8-3.9c-3-1.9-5.2-5-5.8-8.6h-6.7V60
						c0,4.3-3.5,7.7-7.7,7.7c-2.5,0-4.7-1.2-6.2-3.1c-2.5-1.3-4.3-3.9-4.3-6.9c0-4.3,3.5-7.7,7.7-7.7c0.8,0,1.6,0.1,2.3,0.4v-7.3
						C60.4,43.2,53,50.7,53,59.9c0,4.6,1.8,8.8,4.8,11.8c2.7,1.8,5.9,2.9,9.4,2.9c9.3,0,16.9-7.6,16.9-16.9L84.2,39L84.2,39z"/>
					<path class="st6" d="M97,35.8v-1.9c-2.4,0-4.7-0.7-6.8-1.9C92,33.9,94.4,35.3,97,35.8z M84.3,23.3c-0.1-0.3-0.1-0.7-0.1-1.1V21
						H75v36.6c0,4.3-3.5,7.7-7.7,7.7c-1.3,0-2.4-0.3-3.5-0.8c1.4,1.9,3.6,3.1,6.2,3.1c4.3,0,7.7-3.5,7.7-7.7V23.3H84.3z M69.6,43
						v-2.1c-0.8-0.1-1.5-0.2-2.3-0.2c-9.3,0-16.9,7.6-16.9,16.9c0,5.9,3,11,7.5,14.1c-3-3.1-4.8-7.2-4.8-11.8
						C53,50.7,60.4,43.2,69.6,43L69.6,43z"/>
					<path class="st4" d="M84.8,90.1c2.5,0,4.5-2,4.5-4.5s-2-4.5-4.5-4.5h-0.1c-2.5,0-4.5,2-4.5,4.5S82.3,90.1,84.8,90.1L84.8,90.1z
						 M82.6,85.6c0-1.2,1-2.2,2.2-2.2s2.2,1,2.2,2.2s-1,2.2-2.2,2.2S82.6,86.8,82.6,85.6z"/>
				</g>
			</g>
		</g>
	</g>
</g>
</svg>
