<?xml version="1.0" encoding="utf-8"?>
<!-- Generator: Adobe Illustrator 21.1.0, SVG Export Plug-In . SVG Version: 6.00 Build 0)  -->
<svg version="1.1" id="Layer_1" xmlns="http://www.w3.org/2000/svg" xmlns:xlink="http://www.w3.org/1999/xlink" x="0px" y="0px"
	 viewBox="0 0 150 111" style="enable-background:new 0 0 150 111;" xml:space="preserve">
<style type="text/css">
	.st0{filter:url(#AI_Shadow_1);}
	.st1{fill:#FFFFFF;}
	.st2{fill:#FF0000;}
</style>
<filter  filterUnits="objectBoundingBox" id="AI_Shadow_1">
	<feGaussianBlur  in="SourceAlpha" result="blur" stdDeviation="2"></feGaussianBlur>
	<feOffset  dx="0" dy="2"></feOffset>
	<feComponentTransfer>
		<feFuncA  slope="0.2" type="linear"></feFuncA>
	</feComponentTransfer>
	<feMerge>
		<feMergeNode></feMergeNode>
		<feMergeNode  in="SourceGraphic"></feMergeNode>
	</feMerge>
</filter>
<g class="st0">
	<g>
		<path class="st1" d="M125.5,52.4c0,21.6-13.7,40.1-32.9,47.2c-4.2,1.5-8.6,2.5-13.2,2.9c-1.4,0.1-2.7,0.2-4.1,0.2
			C47.5,102.8,25,80.2,25,52.4C25,24.6,47.5,2.1,75.3,2.1C103,2.1,125.5,24.7,125.5,52.4z"/>
	</g>
	<path class="st2" d="M75.5,30.2c6.7,0.2,13.5,0.5,20.2,0.7c1.5,0.1,3,0.3,4.4,0.5c3.9,0.7,6.5,3.2,7.2,7.2c0.4,2.3,0.8,4.7,0.9,7.1
		c0.3,7.4,0.5,14.8-0.8,22.2c-0.8,4.7-3.4,7.3-8.2,7.9c-2.9,0.4-5.9,0.6-8.9,0.6c-9.9,0.1-19.8,0.1-29.6,0c-3,0-5.9-0.2-8.9-0.6
		c-4.8-0.6-7.6-3.2-8.3-8c-1.4-9.3-1.5-18.7,0-28c0.8-5.4,3.4-7.8,8.7-8.4c1.1-0.1,2.1-0.3,3.2-0.4C62.1,30.7,68.8,30.3,75.5,30.2z
		 M69,43.9c0,6.5,0,12.7,0,19.2c5.7-3.3,11.1-6.4,16.8-9.6C80.1,50.2,74.7,47.2,69,43.9z"/>
</g>
</svg>
